<svg fill="none" height="44" viewBox="0 0 44 44" width="44" xmlns="http://www.w3.org/2000/svg"><circle cx="22" cy="22" fill="#303437" r="22"/><path d="m14.5882 18.1194.7261.1876zm3.4998-3.2941.1413.7366zm2.0646 8.7183-.2116-.7195zm1.1068 1.1067-.7196-.2116zm5.4242 5.5645.1876.7262zm3.2941-3.4998.7365.1413zm1.7546-9.1491-.7366-.1412zm-4.4953-4.4952-.1412-.7366zm-11.2318 14.6664c-.2929.2929-.2929.7678 0 1.0607s.7678.2929 1.0607 0zm2.4749-.3535c.2929-.2929.2929-.7678 0-1.0607s-.7678-.2929-1.0607 0zm-1.7678 3.8891c-.2929.2929-.2929.7677 0 1.0606s.7678.2929 1.0607 0zm2.4749-.3536c.2929-.2929.2929-.7677 0-1.0606s-.7678-.2929-1.0607 0zm-6.7175-3.8891c-.2929.2929-.2929.7678 0 1.0607s.7677.2929 1.0606 0zm2.4748-.3535c.2929-.2929.2929-.7678 0-1.0607-.2928-.2929-.7677-.2929-1.0606 0zm16.0512-9.2518-1.7546 9.149 1.4731.2826 1.7547-9.1491zm-12.7664-1.8628 9.149-1.7546-.2825-1.4732-9.1491 1.7547zm-2.915 2.7451c.3616-1.3995 1.5001-2.4737 2.915-2.7451l-.2826-1.4731c-1.9888.3814-3.5794 1.8868-4.0847 3.843zm4.6267 4.5171c-2.7524.8094-5.3492-1.72-4.6267-4.5171l-1.4523-.3752c-1.0089 3.9056 2.6132 7.475 6.5022 6.3313zm2.0379 2.0378c.3665-1.2464-.7915-2.4044-2.0379-2.0378l.4232 1.439c.1074-.0316.2072.0682.1756.1756zm4.5171 4.6268c-2.7971.7225-5.3265-1.8743-4.5171-4.6268l-1.4391-.4232c-1.1436 3.8891 2.4258 7.5112 6.3314 6.5023zm2.7451-2.915c-.2714 1.4149-1.3456 2.5535-2.7451 2.915l.3752 1.4523c1.9562-.5053 3.4616-2.0959 3.843-4.0847zm3.2278-8.8665c.6111-3.1866-2.1865-5.9842-5.3731-5.3731l.2825 1.4732c2.1454-.4115 4.0289 1.472 3.6174 3.6174zm-15.403 11.0906 1.4142-1.4142-1.0607-1.0607-1.4142 1.4142zm.7071 3.5355 1.4142-1.4142-1.0607-1.0606-1.4142 1.4142zm-4.2427-4.2426 1.4142-1.4142-1.0606-1.0607-1.4142 1.4142z" fill="#f2f4f5"/></svg>