<svg width="560" height="560" viewBox="0 0 560 560" fill="none" xmlns="http://www.w3.org/2000/svg">
<g clip-path="url(#clip0_402_8)">
<path d="M280 536.76C421.805 536.76 536.76 421.805 536.76 280C536.76 138.195 421.805 23.24 280 23.24C138.195 23.24 23.24 138.195 23.24 280C23.24 421.805 138.195 536.76 280 536.76Z" fill="white"/>
<path d="M256.144 176.512C246.331 181.328 237.576 188.054 230.394 196.294C223.211 204.535 217.744 214.125 214.312 224.504C203.125 255.449 201.641 289.069 210.056 320.88C214.106 339.239 223.429 356.016 236.88 369.152C246.593 378.904 258.86 385.717 272.272 388.808L269.976 171.64C264.768 173.6 260.232 174.608 256.144 176.512Z" fill="#0161A4"/>
<path d="M280 0C224.621 0 170.486 16.4217 124.44 47.1885C78.3947 77.9553 42.5064 121.685 21.3139 172.849C0.121319 224.012 -5.42361 280.311 5.38025 334.625C16.1841 388.94 42.8515 438.831 82.0102 477.99C121.169 517.149 171.06 543.816 225.375 554.62C279.69 565.424 335.988 559.879 387.151 538.686C438.315 517.494 482.045 481.605 512.812 435.56C543.578 389.514 560 335.379 560 280C560 205.739 530.5 134.52 477.99 82.0101C425.48 29.4999 354.261 0 280 0V0ZM397.04 362.6C395.35 366.59 392.939 370.235 389.928 373.352C370.75 394.042 345.052 407.524 317.128 411.544L309.792 412.776C309.232 412.776 308.672 413.28 309.12 413.056C305.312 426.552 302.624 439.712 297.92 452.256C289.24 474.656 274.736 492.576 251.328 501.536C241.048 505.843 229.58 506.397 218.932 503.1C208.285 499.804 199.136 492.867 193.088 483.504C189.964 478.404 188.049 472.658 187.488 466.704C187.116 462.468 188.216 458.232 190.603 454.713C192.99 451.193 196.518 448.605 200.592 447.384C204.491 446.065 208.701 445.982 212.649 447.145C216.597 448.308 220.09 450.661 222.651 453.884C225.211 457.106 226.715 461.04 226.956 465.148C227.198 469.257 226.166 473.34 224 476.84C222.712 478.912 221.088 480.816 219.632 482.776C230.832 491.176 243.824 490.56 251.944 480.032C256.82 473.194 260.599 465.636 263.144 457.632C267.901 442.725 270.595 427.237 271.152 411.6C269.808 410.824 268.38 410.204 266.896 409.752C218.4 400.064 186.872 371.112 170.968 324.8C163.788 305.471 161.066 284.771 163.005 264.243C164.945 243.715 171.495 223.89 182.168 206.248C190.315 192.174 201.357 179.99 214.563 170.5C227.769 161.011 242.839 154.433 258.776 151.2L267.904 149.184C268.464 149.184 268.912 148.512 269.864 147.896C270.861 130.63 275.257 113.731 282.8 98.168C287.159 88.1571 293.545 79.1575 301.554 71.7362C309.563 64.3149 319.023 58.6329 329.336 55.048C338.954 51.7121 349.393 51.5786 359.094 54.6673C368.794 57.756 377.234 63.9011 383.152 72.184C386.553 77.2528 388.86 82.9743 389.928 88.984C390.596 93.1782 389.804 97.4746 387.684 101.155C385.564 104.834 382.244 107.675 378.28 109.2C374.412 110.921 370.093 111.355 365.96 110.438C361.827 109.521 358.097 107.3 355.32 104.104C352.474 100.961 350.728 96.978 350.344 92.7556C349.96 88.5333 350.96 84.3005 353.192 80.696C354.592 78.344 356.272 76.216 357.784 73.976C345.464 65.52 333.368 66.976 324.576 77.784C316.728 88.6879 311.706 101.368 309.96 114.688C307.888 124.992 306.936 135.52 305.256 147.224L318.192 149.464C336.716 152.144 354.421 158.874 370.048 169.176C374.915 171.877 378.826 176.019 381.242 181.033C383.659 186.047 384.463 191.686 383.544 197.176C383.169 203.029 383.583 208.906 384.776 214.648C385.672 221.76 384.384 225.512 379.848 227.248C377.314 228.18 374.516 228.08 372.055 226.97C369.594 225.86 367.667 223.828 366.688 221.312C362.376 213.752 358.792 205.8 354.536 198.24C350.451 190.987 344.823 184.72 338.049 179.882C331.275 175.044 323.522 171.752 315.336 170.24C311.864 169.68 308.392 169.288 304.864 169.064L307.048 390.376C322.606 388.152 337.621 383.084 351.344 375.424C360.584 369.824 368.928 362.712 377.72 356.328C380.143 353.923 383.016 352.02 386.176 350.728C387.769 350.477 389.396 350.557 390.957 350.961C392.517 351.366 393.978 352.087 395.248 353.08C396.399 354.346 397.175 355.906 397.492 357.586C397.808 359.267 397.652 361.003 397.04 362.6Z" fill="#0161A4"/>
</g>
<defs>
<clipPath id="clip0_402_8">
<rect width="560" height="560" fill="white"/>
</clipPath>
</defs>
</svg>
