<svg width="237" height="186" viewBox="0 0 237 186" fill="none" xmlns="http://www.w3.org/2000/svg">
<g clip-path="url(#clip0_14_573)">
<path opacity="0.1" d="M83.1357 182.397C105.968 182.397 124.477 178.881 124.477 174.542C124.477 170.204 105.968 166.687 83.1357 166.687C60.3036 166.687 41.7944 170.204 41.7944 174.542C41.7944 178.881 60.3036 182.397 83.1357 182.397Z" fill="#0161A4"/>
<path opacity="0.1" d="M137.698 26.2313C122.504 25.7039 108.034 20.7827 94.2156 15.4C80.3976 10.0173 66.7111 4.05533 51.8813 1.20386C42.343 -0.630402 31.4337 -0.891767 23.75 4.23193C16.3527 9.17667 13.9628 17.6887 12.6787 25.5932C11.7115 31.541 11.1433 37.802 13.7914 43.3707C15.6319 47.2371 18.8951 50.4865 21.1535 54.1903C29.0109 67.0749 23.4565 82.964 14.9441 95.5448C10.9532 101.446 6.31666 107.083 3.23425 113.358C0.15185 119.633 -1.27315 126.847 1.42425 133.266C4.09582 139.624 10.4649 144.389 17.3645 147.745C31.3773 154.562 47.8833 156.511 63.9902 157.618C99.6339 160.062 135.465 159.005 171.203 157.943C184.429 157.552 197.712 157.154 210.723 155.103C217.948 153.963 225.407 152.155 230.654 147.79C237.311 142.249 238.962 132.868 234.499 125.922C227.015 114.267 206.328 111.373 201.09 98.8672C198.212 91.9823 201.168 84.3156 205.354 77.9321C214.331 64.2352 229.377 52.2195 230.168 36.5658C230.712 25.8146 223.479 15.0468 212.295 9.95841C200.574 4.62515 184.317 5.29623 175.673 14.1238C166.764 23.2033 151.115 26.6999 137.698 26.2313Z" fill="#0161A4"/>
<path d="M125.625 85.1767L118.434 80.3144L122.061 74.8987L103.069 73.38L96.2448 78.6732L87.7018 73.8697L80.5769 74.7292L80.4923 72.8455C80.4041 70.8817 80.2074 68.9243 79.9031 66.9824C79.9336 66.3938 79.9547 65.718 79.9524 64.9833C79.9524 61.887 79.5345 57.7828 77.6987 55.0468L78.1213 51.2369L74.6938 47.1752C75.2442 46.0755 75.8718 45.0164 76.5718 44.0059C76.6892 43.8363 76.8066 43.6715 76.9334 43.5114C81.3821 43.1888 84.8917 39.5203 84.8917 35.0347C84.8917 34.8275 84.8917 34.6203 84.8683 34.4154C84.8683 34.333 84.8518 34.2482 84.8424 34.1658C85.2768 34.4013 85.7158 34.6367 86.1548 34.8722C86.2369 34.9899 86.3308 35.1077 86.4341 35.2466L86.4553 35.2725L86.5867 35.435L86.629 35.4844C86.6759 35.5409 86.7252 35.5951 86.7745 35.6516L86.8074 35.6893C86.9318 35.8282 87.0633 35.9695 87.2041 36.1084C87.2209 36.1221 87.2366 36.137 87.2511 36.1531L87.4272 36.318L87.4765 36.3627C87.6267 36.4969 87.7863 36.6264 87.946 36.7489L87.9976 36.7865L88.1995 36.9255L88.2653 36.9678C88.3427 37.0149 88.4225 37.0644 88.5 37.1091L88.5282 37.1256C88.6197 37.175 88.7136 37.2221 88.8075 37.2669L88.8545 37.2857C88.9343 37.3202 89.0126 37.3532 89.0893 37.3846L89.162 37.4105C89.2442 37.4388 89.324 37.4647 89.4085 37.4882L89.4602 37.5023C89.5635 37.5282 89.6668 37.5494 89.7724 37.5659H89.7842C89.8836 37.5821 89.984 37.5923 90.0846 37.5965H90.1527C90.2427 37.6012 90.3328 37.6012 90.4227 37.5965H90.4814C90.594 37.59 90.7061 37.5767 90.8171 37.5565C91.3424 37.4872 91.8467 37.3058 92.2961 37.0243C92.4105 36.9476 92.512 36.853 92.5966 36.7441C93.0661 36.1272 92.5496 35.4514 92.5496 35.4514C92.3665 35.0135 91.1786 34.705 91.1786 34.705C91.1786 34.705 87.4225 33.1321 87.4225 31.8795C87.4225 30.6268 86.4834 24.128 76.7902 22.6422C76.7902 22.6422 70.4845 22.2867 68.7121 25.6726L68.6745 26.0682C68.1533 26.3955 67.7214 27.0525 67.2072 27.2455C66.9851 27.2934 66.7709 27.3727 66.571 27.481V27.4363C66.5117 27.4883 66.4631 27.5515 66.4278 27.6223C66.3174 27.8427 66.2512 28.0827 66.233 28.3287C66.1801 28.6292 66.0761 28.9183 65.9255 29.1834C65.8835 29.2587 65.8364 29.3311 65.7846 29.4L65.7447 29.4636C66.0172 29.4849 66.2909 29.4405 66.5429 29.3341C66.5032 29.6565 66.4243 29.9728 66.3081 30.276C66.4574 30.2808 66.6048 30.2425 66.733 30.1657C66.8612 30.0889 66.9647 29.9768 67.0312 29.8427V29.8239L67.0617 29.7815C67.1207 29.6725 67.1695 29.5582 67.2072 29.4401L67.1814 29.4683C67.2284 29.3153 67.2706 29.1599 67.3223 29.0092C67.3459 28.9243 67.3849 28.8445 67.4373 28.7737C67.5 28.7103 67.5766 28.6626 67.661 28.6344C67.7454 28.6062 67.8352 28.5982 67.9233 28.6112L67.827 30.6527H67.8693C67.8127 30.8012 67.7436 30.9446 67.6627 31.0812C67.3293 31.6228 66.7236 31.9925 66.5006 32.5859C66.4045 32.872 66.3677 33.1749 66.3926 33.4759C66.3926 33.6525 66.4138 33.8315 66.4278 34.0081V33.9939C66.4607 34.4649 66.4701 34.9122 66.2166 35.2913C66.0428 35.5503 65.7635 35.7458 65.6672 36.0401C65.6406 36.1221 65.6287 36.2082 65.632 36.2944C65.6508 36.5524 65.7045 36.8067 65.7916 37.0502C65.7927 37.0456 65.7927 37.0408 65.7916 37.0361C65.8502 37.2153 65.8639 37.4061 65.8315 37.5918C65.7259 38.0627 65.1554 38.456 65.1836 38.9057C65.182 38.9648 65.1907 39.0238 65.2094 39.0799C65.3192 39.2996 65.5093 39.4683 65.74 39.5509C66.1019 39.7573 66.5176 39.8492 66.9326 39.8146C67.0881 39.7864 67.2385 39.7348 67.3786 39.6615C67.2143 40.0406 67.0453 40.415 66.8739 40.7706C66.8481 40.8271 66.8199 40.8836 66.7917 40.9401C66.7917 40.9401 65.3409 39.9676 64.5169 41.9503C64.2763 42.3623 64.1043 42.8108 64.0075 43.2783C63.9662 43.4653 63.908 43.6481 63.8337 43.8245C63.4679 44.4457 62.9204 44.9389 62.2655 45.2373C60.5847 46.0096 53.7954 54.5028 53.6757 56.7021C53.6169 57.5606 53.4722 58.4109 53.2437 59.2404C52.7093 61.1936 52.5719 63.2348 52.8399 65.2423C52.9238 65.8912 53.0628 66.5316 53.2554 67.1567C53.9761 69.3535 54.4574 73.453 54.4574 73.453L55.2368 80.5687C55.2079 81.5508 55.2502 82.5337 55.3636 83.5096C54.5677 84.4209 51.3727 88.2189 52.5934 89.2526C53.5325 90.0673 55.1758 89.9331 56.0984 89.7659C55.3213 91.6944 54.0982 95.0474 53.9362 97.3502C53.7015 100.757 54.3377 105.271 55.3448 107.004C56.3519 108.737 59.709 113.183 59.709 113.183C59.709 113.183 59.5517 119.281 60.7513 121.497C61.951 123.713 62.4346 128.309 62.4346 128.309C62.4346 128.309 63.5544 132.189 62.9933 133.616C62.4322 135.043 64.0333 136.23 62.3524 137.179C60.6715 138.128 58.5211 159.515 58.5211 159.515C58.5211 159.515 57.6548 173.532 58.5211 174.246C58.5675 174.279 58.617 174.309 58.669 174.333V179.042C58.669 179.042 58.068 180.031 60.5119 180.231C62.1857 180.365 66.9302 180.669 69.745 180.846L71.9259 180.982C71.9259 180.982 77.0907 182.014 79.3725 180.982C81.6544 179.951 85.6993 179.974 85.0983 177.25C85.0186 176.879 84.9119 176.515 84.7791 176.16C84.1194 174.469 82.9996 174.276 80.936 173.805C80.8163 173.779 80.7013 173.756 80.5956 173.737C78.4218 173.358 77.7081 174.373 76.4897 173.052C75.4309 171.91 72.0597 170.631 70.9118 170.226C70.9399 170.142 70.9752 170.059 71.0033 169.972C70.6782 169.917 70.3759 169.769 70.1324 169.546L73.2429 169.744L75.0952 169.859C75.0952 169.859 79.4852 170.737 81.4337 169.859C83.3822 168.981 86.8097 169.004 86.298 166.69C86.2305 166.374 86.1403 166.064 86.028 165.762C85.4669 164.326 84.5138 164.168 82.7601 163.77C82.6592 163.749 82.5653 163.727 82.4714 163.711C80.6238 163.388 80.0181 164.25 78.9828 163.129C78.0954 162.173 75.2947 161.102 74.2876 160.737C74.2876 160.214 73.5833 159.47 73.1396 158.724C72.6185 157.853 73.581 154.803 73.581 154.803L74.1303 142.152C74.3395 142.058 74.5608 141.995 74.7877 141.964C74.7877 141.964 77.2714 139.585 76.7103 137.052C76.596 136.285 76.5364 135.512 76.5319 134.737C77.3489 133.977 78.4734 132.853 78.7927 132.161C79.3138 131.033 78.7927 125.568 78.7927 125.568V104.671L82.9479 105.092L86.7182 105.481L87.8662 105.599L91.6364 105.98L100.301 106.858L108.11 105.375L111.488 104.734L118.434 103.416V86.3682L125.625 85.1767ZM68.435 28.6866L67.9514 28.6348C68.1111 28.6418 68.2801 28.6724 68.435 28.6866Z" fill="url(#paint0_linear_14_573)"/>
<path d="M108.771 96.2459C106.424 99.6154 97.9843 97.8306 97.9843 97.8306L91.4438 91.692L90.5635 90.8608L92.0401 87.715C92.0401 87.715 92.5096 87.8445 93.3149 88.0753C97.5429 89.3067 110.753 93.4132 108.771 96.2459Z" fill="#EFB7B9"/>
<path opacity="0.1" d="M93.3102 88.0753C93.0214 89.0831 92.2303 90.5924 91.4438 91.692L90.5635 90.8608L92.0401 87.715C92.0401 87.715 92.5143 87.8445 93.3102 88.0753Z" fill="black"/>
<path d="M70.8789 52.6003C70.8789 52.6003 64.8502 55.2822 65.146 61.8681C65.3589 66.1111 65.8198 70.3379 66.5264 74.5267C66.5264 74.5267 65.2939 84.4374 70.4258 86.9922C75.5577 89.5469 80.3069 91.6473 80.3069 91.6473C80.3069 91.6473 88.3357 92.5138 89.3334 92.8717C90.3311 93.2296 93.4487 87.7574 92.8736 86.905C92.2984 86.0526 84.9293 84.2655 83.9902 82.8433C83.0512 81.4211 80.8797 80.5428 80.8797 80.5428C80.8797 80.5428 78.6377 79.1818 78.4851 77.9527C78.3325 76.7236 78.9241 75.8076 79.0744 75.2684C79.2246 74.7292 79.6049 69.5231 79.6049 69.5231C79.6049 69.5231 82.1356 50.9921 70.8789 52.6003Z" fill="#DCE6F2"/>
<path opacity="0.1" d="M74.8581 74.2559C74.8581 74.2559 66.5875 75.6451 67.3881 78.5484C67.3881 78.5484 70.3907 75.4144 74.8581 74.2559Z" fill="black"/>
<path opacity="0.1" d="M74.9214 75.4309C74.9214 75.4309 70.3741 79.1535 71.2638 79.3443C72.1536 79.535 74.9214 75.4309 74.9214 75.4309Z" fill="black"/>
<path opacity="0.1" d="M77.1069 76.7283C77.1069 76.7283 75.8885 79.2312 76.6374 79.0617C77.3863 78.8922 77.1069 76.7283 77.1069 76.7283Z" fill="black"/>
<path opacity="0.1" d="M93.6154 88.3413L93.113 88.1977C93.2562 87.7268 93.2961 87.3453 93.1788 87.1687C92.6036 86.3164 85.2392 84.5315 84.3025 83.107C83.3658 81.6824 81.1919 80.8065 81.1919 80.8065C81.1919 80.8065 78.9499 79.4455 78.7973 78.2164C78.6447 76.9873 79.2363 76.0713 79.3866 75.5321C79.5368 74.9929 79.9171 69.7844 79.9171 69.7844C79.9171 69.7844 82.4408 51.2558 71.1841 52.864C71.1841 52.864 65.1554 55.5483 65.4489 62.1342C65.6618 66.3773 66.1235 70.6041 66.8316 74.7928C66.8316 74.7928 65.5991 84.7034 70.731 87.2582C75.8628 89.813 80.612 91.9133 80.612 91.9133C80.612 91.9133 88.6385 92.7775 89.6386 93.1377C90.0165 93.2743 90.6997 92.5703 91.3687 91.6025L91.7491 91.9581L98.2895 98.0943C98.2895 98.0943 106.729 99.8814 109.077 96.5119C111.06 93.677 97.8528 89.5705 93.6154 88.3413Z" fill="black"/>
<path d="M67.4091 27.8813C67.1793 27.9263 66.9592 28.0116 66.7588 28.1332C66.5241 28.3287 66.5241 28.663 66.4654 28.955C66.3964 29.3612 66.2358 29.7461 65.9958 30.0805C66.263 30.1002 66.531 30.0558 66.7776 29.951C66.7374 30.2733 66.6586 30.5895 66.5428 30.8929C66.6891 30.8966 66.8334 30.8579 66.9583 30.7815C67.0832 30.7051 67.1835 30.5941 67.2471 30.462C67.3713 30.1966 67.4696 29.9198 67.5406 29.6355C67.5626 29.5504 67.6009 29.4705 67.6533 29.4C67.8692 29.1434 68.2707 29.2587 68.604 29.2917C68.8815 29.3152 69.1601 29.2638 69.4111 29.1429C69.662 29.022 69.8762 28.836 70.0314 28.6042C70.3859 28.0649 70.407 26.6851 69.5619 26.5391C68.6792 26.3932 68.1298 27.6129 67.4091 27.8813Z" fill="#965D7B"/>
<g opacity="0.1">
<path opacity="0.1" d="M66.7354 28.4228C66.7566 28.3075 66.7706 28.1874 66.7965 28.072C66.5734 28.2674 66.5617 28.5994 66.503 28.8938C66.4734 29.0636 66.427 29.23 66.3645 29.3906C66.5494 29.0951 66.6753 28.7664 66.7354 28.4228Z" fill="black"/>
<path opacity="0.1" d="M66.8104 30.3678C66.9273 30.0648 67.0062 29.7484 67.0452 29.4259C66.8101 29.5251 66.5556 29.5694 66.301 29.5554C66.2269 29.721 66.1364 29.8788 66.031 30.0263C66.2972 30.047 66.5645 30.0034 66.8104 29.8992C66.7714 30.2217 66.6926 30.5381 66.5757 30.841C66.7219 30.8445 66.866 30.8057 66.9909 30.7293C67.1157 30.6529 67.2161 30.5421 67.2799 30.4101C67.3384 30.3031 67.3856 30.1903 67.4208 30.0734C67.3519 30.17 67.2599 30.2476 67.1532 30.299C67.0465 30.3505 66.9286 30.3741 66.8104 30.3678Z" fill="black"/>
<path opacity="0.1" d="M68.8717 28.766C68.5383 28.733 68.1345 28.6176 67.9185 28.8743C67.8671 28.9453 67.8289 29.0251 67.8059 29.1098C67.7847 29.171 67.7659 29.2346 67.7495 29.2981C67.9725 29.1215 68.3341 29.2157 68.6369 29.2463C68.9142 29.269 69.1926 29.2173 69.4435 29.0965C69.6943 28.9757 69.9085 28.7901 70.0642 28.5588C70.1354 28.4444 70.1885 28.3197 70.2215 28.1891C70.0608 28.3887 69.8536 28.5457 69.6183 28.6462C69.3829 28.7468 69.1266 28.7879 68.8717 28.766Z" fill="black"/>
</g>
<path d="M74.4754 47.3282L78.0555 51.6467L77.5883 56.0051L73.2617 49.212L74.4754 47.3282Z" fill="#DCE6F2"/>
<path opacity="0.1" d="M78.0532 51.6467L77.6142 55.7461L77.586 56.0051L73.6819 49.8736L73.2617 49.212L73.3838 49.0212L74.4731 47.3282L74.7149 47.6202L78.0532 51.6467Z" fill="black"/>
<path d="M79.9124 41.4817C78.7011 41.8302 77.5437 43.0263 76.5366 44.4791C75.8559 45.4815 75.2471 46.5312 74.7149 47.6202C74.3838 48.2842 74.0927 48.9223 73.8509 49.478L73.6819 49.8736C73.2734 50.8414 73.0457 51.4889 73.0457 51.4889C73.0457 51.4889 63.7727 44.4956 65.2399 44.0247C65.7329 43.8669 66.3809 42.8073 67.0218 41.4723L67.1016 41.3027C67.5077 40.4456 67.9068 39.4897 68.2613 38.5902C68.9867 36.7418 69.5243 35.1359 69.5243 35.1359C69.5243 35.1359 83.6099 40.4221 79.9124 41.4817Z" fill="#EFB7B9"/>
<path d="M85.4597 34.7427C85.4597 34.7427 87.6007 38.6279 90.4765 38.0981C93.3524 37.5683 92.1692 36.0118 92.1692 36.0118L85.4597 34.7427Z" fill="#444053"/>
<path d="M81.3116 169.228C79.4147 170.097 75.1257 169.228 75.1257 169.228L73.318 169.115C70.9704 168.964 67.0405 168.71 65.6507 168.597C63.6224 168.43 64.1201 167.596 64.1201 167.596V162.56L73.9613 160.059C73.9613 160.059 77.8512 161.394 78.9171 162.56C79.9289 163.671 80.5205 162.816 82.3258 163.136C82.415 163.153 82.5089 163.172 82.6075 163.195C84.3212 163.589 85.2509 163.744 85.8002 165.169C85.9106 165.468 85.9993 165.775 86.0655 166.087C86.5726 168.38 83.2061 168.364 81.3116 169.228Z" fill="#A36468"/>
<path opacity="0.1" d="M85.8002 165.169C85.4476 165.39 85.0769 165.58 84.6922 165.738C83.401 166.329 82.1732 167.05 80.8679 167.608C79.5626 168.166 78.1564 168.564 76.7432 168.458C76.0037 168.404 75.2477 168.222 74.5411 168.434C74.1041 168.604 73.6925 168.833 73.318 169.115C70.9704 168.964 67.0405 168.71 65.6507 168.597C63.6224 168.43 64.1201 167.596 64.1201 167.596V167.007C64.1929 167.007 64.275 166.986 64.3689 166.979C64.8548 166.971 65.3386 167.044 65.801 167.194C66.8198 167.471 67.834 167.744 68.8529 168.018C68.9367 167.7 69.084 167.404 69.2857 167.145C69.4875 166.887 69.7396 166.673 70.0267 166.515C70.6082 166.206 71.2609 166.055 71.9188 166.08C73.4988 166.101 74.9942 166.852 76.5718 166.927C77.0128 166.968 77.4569 166.893 77.8606 166.711C78.0766 166.602 78.2668 166.445 78.478 166.325C78.8162 166.161 79.1734 166.04 79.5415 165.964C80.576 165.706 81.5918 165.377 82.5817 164.98C82.8634 164.869 83.192 164.669 83.1545 164.368C83.1052 163.968 82.4784 163.921 82.314 163.553C82.285 163.487 82.2716 163.415 82.2749 163.343C82.2782 163.27 82.298 163.2 82.3328 163.136C82.422 163.153 82.5159 163.172 82.6145 163.195C84.3212 163.589 85.2509 163.744 85.8002 165.169Z" fill="black"/>
<path d="M79.3067 180.248C77.0765 181.27 72.0291 180.248 72.0291 180.248L69.9045 180.123C67.1531 179.946 62.519 179.652 60.8827 179.513C58.4952 179.315 59.0821 178.336 59.0821 178.336V172.4L70.6628 169.456C70.6628 169.456 75.2406 171.027 76.4942 172.4C77.6845 173.706 78.3723 172.701 80.5063 173.078C80.6119 173.097 80.7223 173.12 80.8373 173.146C82.8539 173.617 83.9479 173.794 84.5935 175.47C84.7242 175.822 84.8286 176.183 84.9057 176.551C85.4879 179.249 81.5369 179.228 79.3067 180.248Z" fill="#A36468"/>
<path opacity="0.1" d="M84.5888 175.47C84.174 175.73 83.7381 175.954 83.2859 176.141C81.767 176.836 80.3209 177.683 78.7855 178.34C77.2502 178.997 75.5951 179.464 73.9307 179.341C73.0621 179.278 72.1723 179.059 71.3483 179.313C70.832 179.515 70.3461 179.787 69.9045 180.123C67.1531 179.946 62.519 179.652 60.8827 179.513C58.4952 179.315 59.0821 178.336 59.0821 178.336V177.643C59.1793 177.627 59.2772 177.616 59.3755 177.61C59.9474 177.6 60.5171 177.685 61.0611 177.862L64.6506 178.832C64.7506 178.458 64.9256 178.108 65.165 177.804C65.4043 177.5 65.703 177.248 66.0427 177.064C66.727 176.698 67.4958 176.521 68.2706 176.551C70.1299 176.577 71.8883 177.46 73.7452 177.549C74.2624 177.597 74.783 177.51 75.2571 177.297C75.513 177.168 75.7266 176.982 75.9848 176.843C76.3819 176.648 76.8025 176.505 77.2361 176.419C78.4468 176.113 79.6357 175.726 80.7951 175.26C81.1261 175.129 81.5134 174.893 81.4688 174.54C81.4101 174.069 80.673 174.013 80.4781 173.579C80.4453 173.501 80.4304 173.416 80.4344 173.332C80.4385 173.247 80.4615 173.164 80.5016 173.09C80.6073 173.108 80.7176 173.132 80.8326 173.158C82.8492 173.61 83.9432 173.794 84.5888 175.47Z" fill="black"/>
<path d="M74.2595 139.515L73.6327 154.309C73.6327 154.309 72.6936 157.33 73.2031 158.194C73.7125 159.058 74.5717 159.92 74.2595 160.431C73.9473 160.942 70.1911 166.466 68.9774 164.347C67.7637 162.228 66.5664 153.044 66.5664 153.044L67.6862 141.702L74.2595 139.515Z" fill="#444053"/>
<path d="M76.978 102.655L78.7199 104.991V125.307C78.7199 125.307 79.2293 130.723 78.7199 131.841C78.2105 132.959 75.6281 135.196 75.6281 135.196L73.4565 124.012L73.9261 112.18L76.978 102.655Z" fill="#444053"/>
<path opacity="0.1" d="M74.2595 139.515L73.6327 154.309C73.6327 154.309 72.6936 157.33 73.2031 158.194C73.7125 159.058 74.5717 159.92 74.2595 160.431C73.9473 160.942 70.1911 166.466 68.9774 164.347C67.7637 162.228 66.5664 153.044 66.5664 153.044L67.6862 141.702L74.2595 139.515Z" fill="black"/>
<path opacity="0.1" d="M76.978 102.655L78.7199 104.991V125.307C78.7199 125.307 79.2293 130.723 78.7199 131.841C78.2105 132.959 75.6281 135.196 75.6281 135.196L73.4565 124.012L73.9261 112.18L76.978 102.655Z" fill="black"/>
<path d="M78.72 93.9901V104.979L76.7645 113.534C76.7645 113.534 76.1377 134.177 76.6846 136.687C77.2316 139.197 74.8066 141.554 74.8066 141.554C74.8066 141.554 73.398 141.712 73.398 142.809C73.398 143.906 71.0504 147.047 71.0504 147.047L71.1279 153.169C71.1279 153.169 72.1467 164.629 70.5809 166.826C69.015 169.023 71.1279 169.339 71.1279 169.339C69.1723 175.774 59.7819 174.283 58.9344 173.577C58.0869 172.871 58.9344 158.978 58.9344 158.978C58.9344 158.978 61.0332 137.786 62.6765 136.845C64.3198 135.903 62.7563 134.725 63.3033 133.313C63.8503 131.9 62.7563 128.055 62.7563 128.055C62.7563 128.055 62.2868 123.501 61.113 121.304C59.9392 119.107 60.0941 113.063 60.0941 113.063C60.0941 113.063 56.8075 108.667 55.8309 106.941C54.8543 105.215 54.2251 100.741 54.4599 97.3643C54.6195 95.0827 55.8144 91.7603 56.5727 89.8483C56.9366 88.9324 57.1995 88.339 57.1995 88.339L57.4225 88.3979L70.2452 91.765L78.72 93.9901Z" fill="#444053"/>
<path opacity="0.1" d="M79.9125 41.4817C78.7012 41.8302 77.5438 43.0263 76.5367 44.4791H76.2738C74.7975 44.4802 73.3472 44.0904 72.0694 43.349C70.7915 42.6077 69.7314 41.5412 68.9962 40.2573C68.6889 39.7253 68.4417 39.1606 68.259 38.5737C68.9844 36.7253 69.522 35.1194 69.522 35.1194C69.522 35.1194 83.61 40.4221 79.9125 41.4817Z" fill="black"/>
<path d="M84.6662 35.5951C84.6683 36.8834 84.3755 38.1551 83.8104 39.3121C83.2453 40.4691 82.4229 41.4805 81.4067 42.2685C80.3904 43.0565 79.2074 43.6 77.9487 43.8572C76.6901 44.1143 75.3893 44.0783 74.1467 43.7518C72.9042 43.4253 71.7529 42.8171 70.7816 41.974C69.8102 41.1309 69.0448 40.0755 68.5443 38.889C68.0437 37.7024 67.8214 36.4165 67.8944 35.1302C67.9674 33.8439 68.3339 32.5916 68.9654 31.4698C69.2199 31.0139 69.517 30.5834 69.8528 30.1841C70.4064 29.5226 71.0571 28.9494 71.7826 28.4841C73.0079 27.7031 74.4143 27.2542 75.8643 27.1814C77.3143 27.1086 78.7583 27.4143 80.0553 28.0687C81.3522 28.723 82.4578 29.7036 83.2639 30.9147C84.07 32.1257 84.5492 33.5258 84.6545 34.9782C84.6592 35.1854 84.6662 35.3902 84.6662 35.5951Z" fill="#EFB7B9"/>
<path opacity="0.1" d="M77.6141 55.7461L77.586 56.0051L73.6819 49.883C73.2734 50.8508 73.0457 51.4983 73.0457 51.4983C73.0457 51.4983 63.7727 44.4956 65.2399 44.0247C65.7329 43.8669 66.3809 42.8073 67.0218 41.4723L67.1016 41.3027C67.7824 43.3371 71.7381 47.4036 73.3838 49.033C73.5739 49.2214 73.7312 49.3768 73.8533 49.4898L74.1045 49.7253L74.2359 49.8571C74.8346 50.4764 77.3606 53.2078 77.6141 55.7461Z" fill="black"/>
<path d="M80.5322 76.5187L80.1049 90.3099L80.0298 92.7657C80.0298 92.7657 74.9684 92.2948 70.245 91.7768C66.4419 91.36 62.8571 90.9103 62.3054 90.6466C61.6011 90.3146 60.0916 90.0579 58.9014 89.8954C57.9811 89.7706 57.2581 89.7047 57.2581 89.7047C57.2581 89.7047 56.9881 89.7848 56.5725 89.8601C55.6664 90.0249 54.0747 90.1592 53.1474 89.3515C51.9619 88.3178 55.0771 84.5622 55.8542 83.6604L56.0256 83.4649L55.7321 80.7453L54.9691 73.6932C54.9691 73.6932 54.4996 69.6314 53.7953 67.4534C53.607 66.8341 53.4712 66.2 53.3892 65.5579C53.1275 63.5686 53.2616 61.5471 53.7836 59.6101C54.0066 58.787 54.1482 57.9439 54.2062 57.093C54.3235 54.9149 60.9555 46.4971 62.5988 45.7318C63.3381 45.3861 63.9329 44.7911 64.2797 44.0506C64.3942 43.8178 64.4801 43.5719 64.5356 43.3183C65.2399 40.2573 67.0217 41.4723 67.0217 41.4723C67.4513 43.8669 74.1021 50.2056 74.1021 50.2056L74.2336 50.3375C74.8932 51.0156 77.8324 54.1991 77.6235 56.9164C77.5818 57.9277 77.7323 58.9378 78.0672 59.8926C79.42 64.1651 80.1977 68.5996 80.3796 73.0786L80.5322 76.5187Z" fill="#DCE6F2"/>
<path opacity="0.1" d="M71.1088 60.1422C71.1088 60.1422 69.4655 64.1451 68.233 64.7926C67.0005 65.4401 71.6957 66.1583 71.1088 60.1422Z" fill="black"/>
<path opacity="0.1" d="M72.3414 67.6182C72.3414 67.6182 68.5852 68.0891 68.5852 68.7955C68.5852 69.5019 72.3414 67.6182 72.3414 67.6182Z" fill="black"/>
<path opacity="0.1" d="M76.2735 72.2097C76.2735 72.2097 70.8153 83.8652 69.2894 84.2184C67.7634 84.5716 76.2735 72.2097 76.2735 72.2097Z" fill="black"/>
<path opacity="0.1" d="M73.9989 50.7966L69.4844 52.7651L64.0356 44.5097C64.1501 44.2769 64.2361 44.031 64.2915 43.7774C64.9958 40.7164 66.7776 41.9314 66.7776 41.9314C67.2073 44.3261 73.858 50.6648 73.858 50.6648L73.9989 50.7966Z" fill="black"/>
<path d="M74.2335 50.3257L69.719 52.2942L64.2703 44.0388C64.3848 43.806 64.4707 43.5601 64.5262 43.3065C65.2304 40.2455 67.0123 41.4605 67.0123 41.4605C67.4419 43.8551 74.0926 50.1938 74.0926 50.1938L74.2335 50.3257Z" fill="#DCE6F2"/>
<path opacity="0.1" d="M80.0297 92.7657C80.0297 92.7657 74.9682 92.2948 70.2449 91.7768L78.7197 94.0019V96.592C78.3488 96.9287 78.0272 97.103 77.8182 97.0135C76.8416 96.6014 68.8715 95.3064 68.8715 95.3064C68.8715 95.3064 64.242 92.9518 59.2463 90.1262C59.1251 90.0588 59.0075 89.9849 58.8942 89.9049C58.3117 89.5082 57.8098 89.0039 57.4152 88.4191C56.4926 87.0793 56.0419 85.358 55.847 83.6698C55.7375 82.7022 55.6967 81.7281 55.7249 80.7547C55.7491 79.651 55.8495 78.5504 56.0254 77.4606C55.5423 73.2397 55.3071 68.9941 55.3211 64.7455C55.3798 58.1525 61.5423 55.7979 61.5423 55.7979C72.8695 54.7972 69.3575 73.1634 69.3575 73.1634C69.3575 73.1634 68.7025 78.3436 68.5241 78.8734C68.3456 79.4032 67.7047 80.2861 67.7916 81.5223C67.8785 82.7585 70.043 84.2372 70.043 84.2372C70.043 84.2372 72.1558 85.2309 73.0268 86.7025C73.6606 87.788 77.7783 89.2597 80.1048 90.3098L80.0297 92.7657Z" fill="black"/>
<path opacity="0.1" d="M83.8235 30.3678C83.8278 30.7556 83.7477 31.1397 83.5887 31.4933C83.4683 31.7818 83.3287 32.0619 83.1708 32.3316C82.9237 32.8276 82.573 33.2645 82.1426 33.6125C81.6003 34.001 80.9148 34.1093 80.2645 34.2671C79.6142 34.4248 78.9381 34.6768 78.5672 35.2325C78.3661 35.5897 78.2317 35.9807 78.1704 36.3862C78.1082 36.7915 77.9469 37.1749 77.7009 37.5023C77.5728 37.6622 77.3954 37.7749 77.1965 37.8226C76.9976 37.8703 76.7886 37.8504 76.6022 37.7661C76.4059 37.6333 76.257 37.4411 76.1773 37.2174C75.9097 36.6123 75.8416 35.9412 75.7336 35.289C75.6256 34.6367 75.473 33.9657 75.0739 33.4406C74.6748 32.9155 73.9682 32.5694 73.3414 32.7742C73.1316 32.8552 72.9403 32.9779 72.7789 33.1349C72.6175 33.2919 72.4895 33.48 72.4024 33.6878C72.2289 34.104 72.1097 34.5408 72.0479 34.9876C71.7568 36.5856 71.4132 38.1742 71.0173 39.7534C71.0052 39.8181 70.9787 39.8793 70.9398 39.9323C70.8774 39.9947 70.7931 40.0302 70.705 40.0312C70.1792 40.1019 69.6744 39.7322 69.1439 39.7722C69.0892 39.7759 69.035 39.7845 68.9819 39.7981C68.1241 38.3028 67.7453 36.5792 67.8969 34.8608C68.0485 33.1423 68.7231 31.5122 69.8294 30.1912L69.8716 30.1794C70.2246 30.0537 70.5453 29.8511 70.8107 29.586C71.1496 29.2459 71.4634 28.8815 71.7497 28.4958L71.9375 28.2604C72.4771 27.6084 73.0918 27.0227 73.7687 26.5156C73.9534 26.3638 74.1654 26.2487 74.3931 26.1765C74.588 26.1384 74.7878 26.1321 74.9847 26.1577C75.7955 26.2553 76.6128 26.286 77.4286 26.2495C77.997 26.1599 78.5699 26.1017 79.1447 26.0753C80.6307 26.1177 81.8984 27.1702 82.8375 28.324C83.3422 28.915 83.7929 29.5955 83.8235 30.3678Z" fill="black"/>
<path d="M67.8692 31.6934C67.5429 32.2303 66.9536 32.5953 66.733 33.1839C66.409 34.0387 66.956 35.103 66.4536 35.8659C66.2869 36.1225 66.0123 36.3132 65.9183 36.6076C65.7587 37.1044 66.1954 37.6342 66.0827 38.1451C65.97 38.6561 65.2986 39.087 65.477 39.5862C65.5824 39.8039 65.7674 39.9725 65.9935 40.0571C66.3492 40.2618 66.7586 40.3529 67.1673 40.3185C67.8082 40.2125 68.2847 39.5815 68.935 39.5344C69.4632 39.4967 69.968 39.864 70.4938 39.7957C70.582 39.7927 70.6657 39.7565 70.7286 39.6945C70.7685 39.642 70.7951 39.5806 70.8061 39.5155C71.2005 37.9379 71.5448 36.3493 71.839 34.7498C71.899 34.3029 72.0174 33.8659 72.1911 33.45C72.279 33.2426 72.4073 33.0549 72.5686 32.8979C72.7298 32.741 72.9208 32.6181 73.1302 32.5364C73.757 32.3339 74.4613 32.6777 74.8627 33.2028C75.2642 33.7278 75.4168 34.3989 75.5247 35.0511C75.6327 35.7034 75.7008 36.3745 75.9661 36.9796C76.0467 37.204 76.1963 37.397 76.3934 37.5306C76.7455 37.7354 77.2197 37.573 77.4897 37.2669C77.737 36.9393 77.8984 36.5548 77.9592 36.1484C78.0205 35.7436 78.1549 35.3534 78.356 34.997C78.7269 34.4413 79.4053 34.1893 80.0533 34.0316C80.7012 33.8738 81.3844 33.7632 81.9314 33.3746C82.3612 33.027 82.7119 32.5911 82.9596 32.0961C83.307 31.4886 83.631 30.8293 83.6028 30.13C83.5723 29.367 83.1216 28.6866 82.6403 28.0932C81.7013 26.9394 80.4312 25.8869 78.9452 25.8469C78.3702 25.871 77.7972 25.9292 77.2291 26.0211C76.4133 26.0579 75.5958 26.0264 74.7852 25.9269C74.5881 25.9033 74.3886 25.9104 74.1936 25.9481C73.9656 26.018 73.754 26.1333 73.5715 26.2872C72.894 26.7934 72.2786 27.3783 71.7381 28.0296C71.3895 28.4931 71.0116 28.9335 70.6065 29.3482C70.341 29.6137 70.0204 29.8171 69.6675 29.9439C69.4327 30.0099 69.198 29.9628 68.9749 30.0358C68.2824 30.2547 68.1908 31.1613 67.8692 31.6934Z" fill="#965D7B"/>
<path opacity="0.1" d="M90.4765 38.0957C88.5985 38.4418 87.042 36.9184 86.1804 35.807C85.9158 35.4695 85.675 35.1138 85.4597 34.7427L91.9062 35.9624L92.1668 36.0118C92.1668 36.0118 93.3524 37.5683 90.4765 38.0957Z" fill="black"/>
<g opacity="0.1">
<path opacity="0.1" d="M66.0826 37.4717C66.1089 37.1638 66.0622 36.854 65.9465 36.5676C65.9465 36.5911 65.9253 36.6147 65.9183 36.6382C65.8174 36.9537 65.9535 37.281 66.0404 37.6083C66.059 37.5643 66.0732 37.5186 66.0826 37.4717Z" fill="black"/>
<path opacity="0.1" d="M66.6413 33.6172C66.6172 33.9428 66.6235 34.2699 66.6601 34.5944C66.6842 34.2688 66.6779 33.9416 66.6413 33.6172Z" fill="black"/>
<path opacity="0.1" d="M82.9455 31.4156C82.6984 31.9117 82.3477 32.3485 81.9172 32.6965C81.3749 33.085 80.6918 33.1933 80.0392 33.3511C79.3865 33.5089 78.7128 33.7608 78.3418 34.3165C78.1411 34.6739 78.0067 35.0648 77.9451 35.4703C77.8839 35.8765 77.7225 36.261 77.4756 36.5887C77.2056 36.8948 76.7314 37.0597 76.3792 36.8525C76.1822 36.7189 76.0326 36.5259 75.952 36.3015C75.6867 35.6963 75.6163 35.0276 75.5106 34.373C75.405 33.7184 75.2477 33.0497 74.8486 32.5246C74.4495 31.9995 73.7429 31.6534 73.1161 31.8583C72.9065 31.9396 72.7153 32.0624 72.554 32.2194C72.3927 32.3763 72.2645 32.5642 72.177 32.7719C72.0032 33.1877 71.8848 33.6247 71.8249 34.0716C71.5322 35.6712 71.1879 37.2598 70.7919 38.8374C70.7809 38.9025 70.7544 38.9639 70.7145 39.0164C70.6516 39.0784 70.5678 39.1146 70.4797 39.1176C69.9538 39.1859 69.4491 38.8186 68.9209 38.8563C68.2706 38.9034 67.794 39.5344 67.1531 39.638C66.7443 39.6748 66.3342 39.5835 65.9793 39.3766C65.8162 39.3062 65.6697 39.2019 65.5497 39.0705C65.4948 39.1494 65.4584 39.2398 65.4434 39.3348C65.4283 39.4299 65.435 39.5271 65.4629 39.6192C65.5663 39.8384 65.7519 40.0077 65.9793 40.0901C66.3342 40.2969 66.7443 40.3882 67.1531 40.3515C67.794 40.2479 68.2706 39.6168 68.9209 39.5697C69.4491 39.532 69.9538 39.8994 70.4797 39.8311C70.5678 39.828 70.6516 39.7919 70.7145 39.7298C70.7544 39.6774 70.7809 39.6159 70.7919 39.5509C71.1863 37.9811 71.5306 36.3925 71.8249 34.7851C71.8848 34.3382 72.0032 33.9012 72.177 33.4853C72.2645 33.2777 72.3927 33.0898 72.554 32.9328C72.7153 32.7759 72.9065 32.6531 73.1161 32.5717C73.7429 32.3669 74.4472 32.713 74.8486 33.2381C75.25 33.7632 75.4026 34.4342 75.5106 35.0865C75.6186 35.7387 75.6867 36.4098 75.952 37.0149C76.0326 37.2394 76.1822 37.4323 76.3792 37.5659C76.7314 37.7708 77.2056 37.6083 77.4756 37.3022C77.7225 36.9744 77.8839 36.59 77.9451 36.1837C78.0067 35.7783 78.1411 35.3873 78.3418 35.03C78.7128 34.4743 79.3912 34.2247 80.0392 34.0646C80.6871 33.9044 81.3702 33.7985 81.9172 33.41C82.3477 33.062 82.6984 32.6251 82.9455 32.129C83.2929 31.5239 83.6169 30.8646 83.5887 30.1653C83.5841 30.0754 83.5747 29.9858 83.5606 29.8969C83.4473 30.4358 83.239 30.9501 82.9455 31.4156Z" fill="black"/>
</g>
<path opacity="0.1" d="M83.5982 31.4862C84.2002 32.5598 84.557 33.7541 84.6428 34.9829C82.5511 33.8056 80.5838 32.5129 79.5908 32.0631C77.8606 31.279 71.3906 31.3968 68.9585 31.4698C69.2129 31.0139 69.5101 30.5834 69.8459 30.1841C70.4016 29.5221 71.0547 28.9488 71.7827 28.4841C72.7467 27.8704 73.8254 27.4604 74.9527 27.2791C76.0801 27.0978 77.2325 27.1489 78.3395 27.4295C79.4465 27.71 80.4848 28.2141 81.391 28.9108C82.2972 29.6075 83.0522 30.4822 83.6099 31.4815L83.5982 31.4862Z" fill="black"/>
<path opacity="0.1" d="M91.0635 37.0973C89.9343 37.4458 88.0914 36.7724 86.1804 35.807C85.9158 35.4695 85.675 35.1138 85.4597 34.7427L91.9062 35.9624C92.3335 36.2544 92.4415 36.6711 91.0635 37.0973Z" fill="black"/>
<path d="M76.7737 23.3227C76.7737 23.3227 70.6112 22.9695 68.8787 26.3249L68.5993 29.2988L68.1298 29.247L68.0359 31.2696C68.0359 31.2696 77.4545 30.8575 79.5978 31.8277C81.7412 32.7978 88.4013 37.686 91.0706 36.8619C93.7398 36.0377 90.8358 35.2725 90.8358 35.2725C90.8358 35.2725 87.1618 33.7114 87.1618 32.4869C87.1618 31.2625 86.2509 24.7943 76.7737 23.3227Z" fill="#444053"/>
<path opacity="0.1" d="M64.8877 133.567C64.8877 133.567 68.8199 137.393 70.5219 137.099C70.5219 137.099 65.7094 136.687 64.8877 133.567Z" fill="black"/>
<path opacity="0.1" d="M64.0662 135.34C64.0662 135.34 64.4183 137.308 65.3574 137.115C66.2964 136.922 64.0662 135.34 64.0662 135.34Z" fill="black"/>
<path opacity="0.1" d="M70.2287 168.239C70.2287 168.239 64.646 172.595 65.5874 172.713C66.5288 172.831 70.2287 168.239 70.2287 168.239Z" fill="black"/>
<path d="M77.6963 81.7837L95.7728 78.8333V95.9986L78.5978 95.0968L77.6963 81.7837Z" fill="#0161A4"/>
<path opacity="0.05" d="M77.6963 81.7837L95.7728 78.8333V95.9986L78.5978 95.0968L77.6963 81.7837Z" fill="black"/>
<path d="M95.7729 78.8333L117.451 80.4604L116.251 95.3982L95.7729 95.9986V78.8333Z" fill="#0161A4"/>
<path opacity="0.1" d="M95.7729 78.8333L117.451 80.4604L116.251 95.3982L95.7729 95.9986V78.8333Z" fill="black"/>
<path d="M102.438 73.5942L95.7729 78.8333L117.451 80.4604L120.993 75.0989L102.438 73.5942Z" fill="#0161A4"/>
<path d="M71.1511 76.0619L87.4247 74.0746L95.7728 78.8333L77.6962 81.7837L71.1511 76.0619Z" fill="#0161A4"/>
<path d="M99.7356 83.2907V106.759L91.2678 105.888L87.5844 105.511L86.4622 105.394L82.7812 105.015L77.6963 104.492V81.7837L95.7705 83.0175L99.7356 83.2907Z" fill="#0161A4"/>
<path d="M117.451 80.4604V103.347L110.664 104.654L107.363 105.29L99.7356 106.759V83.2906L117.451 80.4604Z" fill="#0161A4"/>
<path opacity="0.05" d="M117.451 80.4604V103.347L110.664 104.654L107.363 105.29L99.7356 106.759V83.2906L117.451 80.4604Z" fill="black"/>
<path d="M71.1511 86.7237L77.6962 81.7837L99.7355 83.2907L96.4912 88.7722L71.1511 86.7237Z" fill="#0161A4"/>
<path opacity="0.1" d="M71.1511 86.7237L77.6962 81.7837L99.7355 83.2907L96.4912 88.7722L71.1511 86.7237Z" fill="white"/>
<path d="M117.451 80.4604L99.7356 83.2906L105.501 88.4709L124.477 85.278L117.451 80.4604Z" fill="#0161A4"/>
<path opacity="0.1" d="M117.451 80.4604L99.7356 83.2906L105.501 88.4709L124.477 85.278L117.451 80.4604Z" fill="white"/>
<path opacity="0.1" d="M110.664 104.654L107.363 105.29V100.399L110.455 99.6177L110.664 104.654Z" fill="white"/>
<path opacity="0.1" d="M91.2679 102.653V105.888L87.5845 105.511V102.653H91.2679Z" fill="white"/>
<path opacity="0.1" d="M86.4623 103.672V105.394L82.7812 105.015V103.672H86.4623Z" fill="white"/>
<path opacity="0.1" d="M97.5195 100.936C94.9958 104.174 86.6618 101.937 86.6618 101.937L80.4689 95.4571L79.6284 94.5788L81.2717 91.5178C81.2717 91.5178 81.7413 91.6732 82.5254 91.9463C86.6759 93.4015 99.6441 98.212 97.5195 100.936Z" fill="black"/>
<path d="M97.2846 100.465C94.761 103.703 86.427 101.466 86.427 101.466L80.234 94.9861L79.3936 94.1079L81.0369 91.0468C81.0369 91.0468 81.5064 91.2022 82.2905 91.4754C86.4411 92.9305 99.4092 97.7411 97.2846 100.465Z" fill="#EFB7B9"/>
<path opacity="0.1" d="M82.2812 91.4754C81.9385 92.4643 81.0675 93.9289 80.2247 94.9861L79.3843 94.1079L81.0276 91.0468C81.0276 91.0468 81.4995 91.2022 82.2812 91.4754Z" fill="black"/>
<path d="M61.7772 54.856C61.7772 54.856 55.6147 57.2107 55.556 63.8037C55.542 68.0522 55.7772 72.2979 56.2603 76.5187C56.2603 76.5187 54.4996 86.3493 59.4882 89.1749C64.4769 92.0005 69.1134 94.3551 69.1134 94.3551C69.1134 94.3551 77.0835 95.6502 78.0625 96.0622C79.0414 96.4743 82.4431 91.1763 81.9149 90.2934C81.3867 89.4104 74.1302 87.2323 73.2687 85.7607C72.4071 84.289 70.2849 83.2977 70.2849 83.2977C70.2849 83.2977 68.1204 81.8166 68.0335 80.5805C67.9467 79.3443 68.5852 78.4613 68.766 77.9315C68.9467 77.4017 69.6017 72.2215 69.6017 72.2215C69.6017 72.2215 73.1043 53.8435 61.7772 54.856Z" fill="#DCE6F2"/>
<path opacity="0.1" d="M64.5944 76.6835C64.5944 76.6835 56.2604 77.6254 56.906 80.5687C56.906 80.5687 60.0729 77.5995 64.5944 76.6835Z" fill="black"/>
<path opacity="0.1" d="M64.5943 77.8608C64.5943 77.8608 59.8639 81.3339 60.7325 81.5694C61.6011 81.8049 64.5943 77.8608 64.5943 77.8608Z" fill="black"/>
<path opacity="0.1" d="M66.7072 79.2736C66.7072 79.2736 65.3574 81.7083 66.1204 81.5812C66.8833 81.454 66.7072 79.2736 66.7072 79.2736Z" fill="black"/>
<path d="M153.479 26.4638C153.479 26.4638 144.558 25.9246 145.601 32.202C145.601 32.202 145.392 33.3111 146.394 33.815C146.394 33.815 146.411 33.344 147.31 33.5065C147.63 33.5606 147.956 33.5764 148.279 33.5536C148.718 33.5242 149.136 33.3514 149.467 33.0615C149.467 33.0615 151.977 32.0231 152.954 27.9072C152.954 27.9072 153.677 27.0077 153.658 26.777L152.151 27.4245C152.151 27.4245 152.665 28.5147 152.259 29.4212C152.259 29.4212 152.212 27.4645 151.921 27.5092C151.862 27.5092 151.139 27.8883 151.139 27.8883C151.139 27.8883 152.024 29.7862 151.355 31.1684C151.355 31.1684 151.608 28.8278 150.862 28.0249L149.801 28.6465C149.801 28.6465 150.836 30.608 150.134 32.2091C150.134 32.2091 150.315 29.7532 149.578 28.7972L148.615 29.5484C148.615 29.5484 149.589 31.4839 148.995 32.8119C148.995 32.8119 148.918 29.9534 148.406 29.7367C148.406 29.7367 147.566 30.4808 147.439 30.7869C147.439 30.7869 148.103 32.1997 147.69 32.932C147.69 32.932 147.437 31.0271 147.221 31.0177C147.221 31.0177 146.383 32.2797 146.296 33.1368C146.336 32.3378 146.585 31.5633 147.016 30.8905C146.533 30.9822 146.088 31.2138 145.735 31.5569C145.735 31.5569 145.864 30.6645 147.223 30.5868C147.223 30.5868 147.927 29.6284 148.101 29.5696C148.101 29.5696 146.749 29.4565 145.929 29.8215C145.929 29.8215 146.65 28.9809 148.35 29.3506L149.289 28.5735C149.289 28.5735 147.509 28.3381 146.753 28.5994C146.753 28.5994 147.622 27.8554 149.545 28.3969L150.578 27.7777C150.578 27.7777 149.061 27.448 148.157 27.5681C148.157 27.5681 149.11 27.0524 150.881 27.6105L151.62 27.2785C151.62 27.2785 150.507 27.0595 150.183 27.0242C149.859 26.9889 149.841 26.8994 149.841 26.8994C150.545 26.7819 151.267 26.8634 151.928 27.1349C151.928 27.1349 153.512 26.5627 153.479 26.4638Z" fill="#0161A4"/>
<path opacity="0.1" d="M180.585 57.8606C180.585 57.8606 171.664 57.3213 172.706 63.5988C172.706 63.5988 172.497 64.7078 173.5 65.2117C173.5 65.2117 173.516 64.7408 174.418 64.9033C174.738 64.9573 175.063 64.9731 175.387 64.9504C175.821 64.9188 176.233 64.747 176.561 64.4606C176.561 64.4606 179.073 63.4199 180.05 59.304C180.05 59.304 180.77 58.4068 180.742 58.1761L179.235 58.8212C179.235 58.8212 179.749 59.9114 179.345 60.818C179.345 60.818 179.296 58.8613 179.007 58.906C178.949 58.906 178.223 59.2851 178.223 59.2851C178.223 59.2851 179.111 61.1853 178.441 62.5651C178.441 62.5651 178.695 60.2246 177.946 59.4217L176.897 60.0362C176.897 60.0362 177.932 61.9977 177.23 63.5988C177.23 63.5988 177.411 61.1429 176.674 60.1869L175.714 60.9404C175.714 60.9404 176.685 62.8736 176.094 64.2016C176.094 64.2016 176.016 61.3431 175.505 61.1264C175.505 61.1264 174.664 61.8705 174.535 62.1766C174.535 62.1766 175.202 63.5894 174.789 64.3217C174.789 64.3217 174.535 62.4168 174.319 62.4074C174.319 62.4074 173.481 63.6694 173.394 64.5265C173.436 63.7274 173.685 62.9531 174.117 62.2802C173.634 62.3721 173.187 62.6037 172.833 62.9466C172.833 62.9466 172.965 62.0542 174.324 61.9765C174.324 61.9765 175.016 61.0181 175.202 60.9593C175.202 60.9593 173.85 60.8462 173.03 61.2112C173.03 61.2112 173.751 60.3706 175.448 60.7521L176.387 59.975C176.387 59.975 174.606 59.7396 173.852 60.0009C173.852 60.0009 174.721 59.2569 176.643 59.7984L177.676 59.1791C177.676 59.1791 176.157 58.8519 175.253 58.9696C175.253 58.9696 176.209 58.4539 177.979 59.012L178.718 58.68C178.718 58.68 177.606 58.461 177.279 58.4257C176.953 58.3903 176.937 58.3009 176.937 58.3009C177.641 58.1833 178.365 58.2648 179.026 58.5363C179.026 58.5363 180.613 57.9595 180.585 57.8606Z" fill="#0161A4"/>
<path opacity="0.1" d="M126.39 52.2871C126.39 52.2871 128.445 43.5538 122.097 43.5231C122.097 43.5231 121.042 43.1276 120.378 44.0317C120.378 44.0317 120.831 44.1283 120.524 44.9901C120.417 45.2948 120.346 45.6109 120.312 45.9319C120.267 46.3696 120.365 46.8102 120.592 47.187C120.592 47.187 121.186 49.8477 125.052 51.5148C125.052 51.5148 125.813 52.3813 126.043 52.3907L125.667 50.7919C125.667 50.7919 124.508 51.1145 123.686 50.5565C123.686 50.5565 125.618 50.8414 125.62 50.5565C125.62 50.4976 125.386 49.7182 125.386 49.7182C125.386 49.7182 123.369 50.2692 122.125 49.3721C122.125 49.3721 124.381 50.022 125.299 49.4215L124.876 48.263C124.876 48.263 122.763 48.9529 121.317 47.9852C121.317 47.9852 123.7 48.5833 124.766 48.0182L124.191 46.9397C124.191 46.9397 122.125 47.5708 120.92 46.7584C120.92 46.7584 123.738 47.1681 124.043 46.7019C124.043 46.7019 123.456 45.7436 123.176 45.5646C123.176 45.5646 121.683 45.9837 121.026 45.4492C121.026 45.4492 122.939 45.5222 122.984 45.3197C122.984 45.3197 121.888 44.2766 121.052 44.0412C121.831 44.219 122.55 44.5972 123.139 45.1384C123.13 44.6449 122.979 44.1647 122.702 43.7563C122.702 43.7563 123.557 44.0388 123.407 45.4045C123.407 45.4045 124.228 46.2522 124.254 46.4453C124.254 46.4453 124.594 45.129 124.376 44.2554C124.376 44.2554 125.08 45.1125 124.416 46.7255L125.017 47.7968C125.017 47.7968 125.562 46.0779 125.423 45.2868C125.423 45.2868 126.008 46.271 125.146 48.0794L125.58 49.2072C125.58 49.2072 126.16 47.7615 126.198 46.8526C126.198 46.8526 126.543 47.8839 125.691 49.5393L125.893 50.3257C125.893 50.3257 126.296 49.2638 126.386 48.9482C126.475 48.6327 126.566 48.6304 126.566 48.6304C126.563 49.3467 126.36 50.0479 125.982 50.6554C125.982 50.6554 126.289 52.2989 126.39 52.2871Z" fill="#0161A4"/>
<path opacity="0.1" d="M106.854 55.2634C106.854 55.2634 99.6887 49.8877 97.1275 55.7108C97.1275 55.7108 96.3457 56.5231 96.9068 57.4956C96.9068 57.4956 97.1744 57.1165 97.8458 57.7452C98.0837 57.9671 98.3469 58.1599 98.6299 58.3197C99.0134 58.5339 99.456 58.6165 99.8906 58.5552C99.8906 58.5552 102.557 59.0708 105.628 56.1723C105.628 56.1723 106.724 55.8191 106.828 55.6119L105.21 55.327C105.21 55.327 105.041 56.5208 104.208 57.0553C104.208 57.0553 105.238 55.3929 104.971 55.2728C104.917 55.2469 104.109 55.1551 104.109 55.1551C104.109 55.1551 103.809 57.2319 102.494 58.016C102.494 58.016 103.99 56.2005 103.804 55.1174L102.576 55.0515C102.576 55.0515 102.367 57.2625 100.902 58.2138C100.902 58.2138 102.398 56.2618 102.311 55.0562L101.095 55.1551C101.095 55.1551 100.848 57.3049 99.6253 58.0866C99.6253 58.0866 101.125 55.6566 100.818 55.1951C100.818 55.1951 99.7075 55.3529 99.4328 55.5365C99.4328 55.5365 99.2192 57.0765 98.468 57.4673C98.468 57.4673 99.3014 55.7367 99.1323 55.6166C99.1323 55.6166 97.7402 56.2076 97.1932 56.881C97.6664 56.2362 98.2992 55.7265 99.029 55.4023C98.5749 55.213 98.0756 55.1606 97.5923 55.2516C97.5923 55.2516 98.1886 54.5782 99.3671 55.2634C99.3671 55.2634 100.47 54.8466 100.658 54.8984C100.658 54.8984 99.5901 54.0578 98.7051 53.9118C98.7051 53.9118 99.7709 53.6057 100.98 54.8537L102.198 54.7289C102.198 54.7289 100.844 53.5516 100.067 53.3538C100.067 53.3538 101.201 53.2101 102.508 54.7218L103.71 54.776C103.71 54.776 102.623 53.6646 101.804 53.2643C101.804 53.2643 102.881 53.3585 104.055 54.8019L104.856 54.9314C104.856 54.9314 104.046 54.1355 103.792 53.9283C103.539 53.7211 103.574 53.634 103.574 53.634C104.227 53.924 104.787 54.3903 105.191 54.9808C105.191 54.9808 106.823 55.3599 106.854 55.2634Z" fill="#0161A4"/>
<path opacity="0.1" d="M130.708 5.31913C130.708 5.31913 123.543 -0.0588639 120.981 5.76651C120.981 5.76651 120.2 6.57886 120.761 7.55133C120.761 7.55133 121.028 7.17223 121.7 7.80092C121.939 8.02169 122.203 8.21371 122.486 8.3731C122.87 8.5874 123.312 8.67009 123.747 8.60856C123.747 8.60856 126.414 9.12423 129.485 6.22331C129.485 6.22331 130.581 5.87247 130.682 5.66291L129.064 5.38271C129.064 5.38271 128.898 6.57651 128.062 7.11101C128.062 7.11101 129.095 5.44864 128.827 5.32855C128.773 5.30265 127.966 5.21082 127.966 5.21082C127.966 5.21082 127.656 7.29232 126.341 8.0717C126.341 8.0717 127.834 6.25628 127.651 5.17314L126.423 5.10721C126.423 5.10721 126.212 7.31822 124.749 8.26714C124.749 8.26714 126.245 6.31514 126.158 5.10957L124.944 5.20846C124.944 5.20846 124.695 7.3606 123.472 8.14234C123.472 8.14234 124.975 5.71236 124.667 5.25085C124.667 5.25085 123.557 5.40861 123.282 5.59227C123.282 5.59227 123.069 7.1322 122.317 7.52307C122.317 7.52307 123.151 5.79241 122.982 5.66997C122.982 5.66997 121.59 6.26334 121.043 6.93677C121.515 6.29129 122.148 5.78142 122.878 5.45806C122.424 5.26734 121.923 5.21494 121.439 5.30736C121.439 5.30736 122.038 4.63393 123.216 5.31913C123.216 5.31913 124.32 4.90001 124.508 4.95416C124.508 4.95416 123.439 4.11356 122.554 3.96522C122.554 3.96522 123.618 3.66147 124.827 4.90707L126.045 4.78227C126.045 4.78227 124.693 3.60495 123.914 3.40481C123.914 3.40481 125.048 3.26353 126.357 4.77521L127.559 4.82701C127.559 4.82701 126.473 3.71562 125.651 3.31769C125.651 3.31769 126.731 3.41187 127.905 4.85527L128.703 4.98477C128.703 4.98477 127.89 4.19832 127.637 3.99582C127.383 3.79333 127.419 3.70385 127.419 3.70385C128.072 3.99361 128.632 4.45994 129.036 5.0507C129.036 5.0507 130.668 5.40861 130.708 5.31913Z" fill="#0161A4"/>
<path opacity="0.1" d="M158.085 12.1311C158.085 12.1311 155.221 3.6285 149.819 6.96974C149.819 6.96974 148.716 7.2052 148.629 8.31424C148.629 8.31424 149.063 8.15412 149.256 9.04888C149.327 9.36717 149.435 9.6761 149.578 9.96955C149.772 10.3645 150.088 10.6858 150.479 10.8855C150.479 10.8855 152.385 12.8281 156.555 12.1853C156.555 12.1853 157.656 12.5196 157.858 12.4042L156.684 11.2481C156.684 11.2481 155.871 12.1358 154.881 12.1005C154.881 12.1005 156.672 11.3188 156.524 11.0668C156.494 11.0174 155.881 10.4829 155.881 10.4829C155.881 10.4829 154.458 12.0204 152.932 11.9192C152.932 11.9192 155.188 11.274 155.648 10.2709L154.677 9.51981C154.677 9.51981 153.254 11.2199 151.51 11.1681C151.51 11.1681 153.857 10.4122 154.451 9.36676L153.395 8.75691C153.395 8.75691 151.986 10.3887 150.526 10.3369C150.526 10.3369 153.137 9.19016 153.144 8.63447C153.144 8.63447 152.141 8.13293 151.81 8.12822C151.81 8.12822 150.763 9.27493 149.932 9.17133C149.932 9.17133 151.594 8.2177 151.524 8.02226C151.524 8.02226 150.045 7.71851 149.211 7.96339C149.965 7.70016 150.774 7.63928 151.559 7.7868C151.291 7.37214 150.908 7.04483 150.458 6.84494C150.458 6.84494 151.331 6.63067 151.916 7.8645C151.916 7.8645 153.061 8.14941 153.183 8.29775C153.183 8.29775 152.78 7.00035 152.134 6.37401C152.134 6.37401 153.184 6.72956 153.47 8.45081L154.545 9.03947C154.545 9.03947 154.101 7.29468 153.566 6.68483C153.566 6.68483 154.583 7.21227 154.803 9.20194L155.766 9.92952C155.766 9.92952 155.498 8.3943 155.047 7.59843C155.047 7.59843 155.883 8.29069 156.033 10.1485L156.618 10.7089C156.618 10.7089 156.402 9.59281 156.313 9.27728C156.224 8.96176 156.296 8.94057 156.296 8.94057C156.67 9.5514 156.867 10.2539 156.867 10.9703C156.867 10.9703 158.003 12.1923 158.085 12.1311Z" fill="#0161A4"/>
<path opacity="0.1" d="M139.394 12.5502C139.394 12.5502 130.496 11.5566 131.231 17.8882C131.231 17.8882 130.966 18.9854 131.935 19.5364C131.935 19.5364 131.975 19.0655 132.874 19.2774C133.192 19.346 133.517 19.3784 133.842 19.374C134.281 19.366 134.705 19.2147 135.051 18.9431C135.051 18.9431 137.612 18.0318 138.807 13.9701C138.807 13.9701 139.572 13.1106 139.556 12.8775L138.018 13.4473C138.018 13.4473 138.488 14.5611 138.018 15.4464C138.018 15.4464 138.067 13.4897 137.783 13.5203C137.725 13.5203 136.983 13.8594 136.983 13.8594C136.983 13.8594 137.772 15.802 137.034 17.1559C137.034 17.1559 137.405 14.8295 136.699 13.9913L135.607 14.5564C135.607 14.5564 136.546 16.5696 135.76 18.1331C135.76 18.1331 136.065 15.689 135.377 14.6977L134.379 15.404C134.379 15.404 135.253 17.3843 134.593 18.6817C134.593 18.6817 134.661 15.8232 134.161 15.5806C134.161 15.5806 133.283 16.287 133.14 16.579C133.14 16.579 133.734 18.0153 133.285 18.7335C133.285 18.7335 133.128 16.8192 132.921 16.8003C132.921 16.8003 132.02 18.0177 131.888 18.8771C131.97 18.0803 132.258 17.3188 132.724 16.6685C132.237 16.736 131.78 16.9447 131.41 17.2689C131.41 17.2689 131.583 16.3859 132.945 16.3765C132.945 16.3765 133.684 15.4558 133.884 15.4064C133.884 15.4064 132.539 15.2251 131.701 15.5477C131.701 15.5477 132.464 14.7424 134.14 15.211L135.128 14.4834C135.128 14.4834 133.342 14.1208 132.586 14.3562C132.586 14.3562 133.492 13.6498 135.384 14.2974L136.448 13.7299C136.448 13.7299 134.947 13.3249 134.039 13.3979C134.039 13.3979 135.018 12.927 136.757 13.5792L137.513 13.2849C137.513 13.2849 136.412 13.0094 136.088 12.9576C135.764 12.9058 135.753 12.8163 135.753 12.8163C136.462 12.7346 137.181 12.852 137.828 13.1554C137.828 13.1554 139.41 12.6491 139.394 12.5502Z" fill="#0161A4"/>
<path opacity="0.1" d="M217.24 81.8166C217.24 81.8166 208.347 80.823 209.082 87.1476C209.082 87.1476 208.817 88.2448 209.786 88.7958C209.786 88.7958 209.826 88.3249 210.726 88.5344C211.043 88.6053 211.368 88.6377 211.693 88.631C212.132 88.6242 212.557 88.4728 212.902 88.2001C212.902 88.2001 215.463 87.2888 216.646 83.2294C216.646 83.2294 217.412 82.3676 217.395 82.1369L215.857 82.7043C215.857 82.7043 216.327 83.8204 215.857 84.7058C215.857 84.7058 215.907 82.7467 215.623 82.7797C215.564 82.7797 214.822 83.1164 214.822 83.1164C214.822 83.1164 215.611 85.059 214.874 86.4129C214.874 86.4129 215.245 84.0889 214.538 83.2483L213.446 83.8157C213.446 83.8157 214.385 85.8289 213.601 87.3924C213.601 87.3924 213.904 84.9483 213.216 83.9547L212.219 84.661C212.219 84.661 213.092 86.6413 212.432 87.9363C212.432 87.9363 212.5 85.0778 212 84.8376C212 84.8376 211.125 85.544 210.979 85.836C210.979 85.836 211.575 87.2723 211.125 87.9905C211.125 87.9905 210.967 86.0762 210.761 86.0574C210.761 86.0574 209.859 87.2747 209.728 88.1341C209.809 87.3373 210.097 86.5758 210.564 85.9255C210.076 85.9918 209.619 86.2006 209.249 86.5259C209.249 86.5259 209.423 85.6406 210.784 85.6312C210.784 85.6312 211.526 84.7105 211.723 84.6634C211.723 84.6634 210.378 84.4797 209.54 84.8023C209.54 84.8023 210.303 83.9994 211.982 84.468L212.968 83.7404C212.968 83.7404 211.202 83.406 210.434 83.6368C210.434 83.6368 211.341 82.9304 213.233 83.5756L214.296 83.0104C214.296 83.0104 212.796 82.6054 211.888 82.6784C211.888 82.6784 212.867 82.2075 214.606 82.8597L215.362 82.5631C215.362 82.5631 214.261 82.2876 213.937 82.2381C213.613 82.1887 213.601 82.0968 213.601 82.0968C214.311 82.0137 215.029 82.1303 215.677 82.4336C215.677 82.4336 217.264 81.9179 217.24 81.8166Z" fill="#0161A4"/>
<path opacity="0.1" d="M230.835 90.1473C230.835 90.1473 221.943 89.156 222.677 95.4783C222.677 95.4783 222.414 96.5755 223.382 97.1265C223.382 97.1265 223.422 96.6556 224.321 96.8675C224.638 96.9367 224.961 96.9683 225.286 96.9617C225.723 96.9527 226.145 96.8024 226.49 96.5331C226.49 96.5331 229.049 95.6219 230.232 91.5601C230.232 91.5601 231 90.7007 230.981 90.4676L229.443 91.035C229.443 91.035 229.913 92.1511 229.443 93.0365C229.443 93.0365 229.492 91.0798 229.208 91.1104C229.15 91.1104 228.408 91.4471 228.408 91.4471C228.408 91.4471 229.197 93.3897 228.46 94.7436C228.46 94.7436 228.83 92.4196 228.124 91.5813L227.032 92.1464C227.032 92.1464 227.971 94.1597 227.187 95.7232C227.187 95.7232 227.49 93.279 226.802 92.2877L225.804 92.9941C225.804 92.9941 226.678 94.9744 226.02 96.2718C226.02 96.2718 226.086 93.4109 225.586 93.1707C225.586 93.1707 224.71 93.8771 224.565 94.1691C224.565 94.1691 225.161 95.6054 224.71 96.3236C224.71 96.3236 224.553 94.4093 224.347 94.3904C224.347 94.3904 223.445 95.6078 223.316 96.4672C223.397 95.6708 223.685 94.9094 224.149 94.2586C223.662 94.3261 223.205 94.5348 222.835 94.859C222.835 94.859 223.011 93.9736 224.372 93.9666C224.372 93.9666 225.112 93.0459 225.311 92.9965C225.311 92.9965 223.966 92.8152 223.128 93.1377C223.128 93.1377 223.891 92.3325 225.57 92.801L226.556 92.0734C226.556 92.0734 224.79 91.7391 224.023 91.9698C224.023 91.9698 224.929 91.2634 226.821 91.911L227.884 91.3435C227.884 91.3435 226.384 90.9385 225.476 91.0115C225.476 91.0115 226.455 90.5406 228.194 91.1928L228.95 90.8985C228.95 90.8985 227.849 90.623 227.528 90.5712C227.206 90.5194 227.189 90.4299 227.189 90.4299C227.899 90.3482 228.618 90.4656 229.265 90.769C229.265 90.769 230.859 90.2486 230.835 90.1473Z" fill="#0161A4"/>
<path opacity="0.1" d="M200.652 19.9768C200.652 19.9768 193.487 14.6011 190.926 20.4241C190.926 20.4241 190.144 21.2365 190.705 22.209C190.705 22.209 190.973 21.8299 191.644 22.4586C191.882 22.6805 192.145 22.8733 192.428 23.0331C192.812 23.2471 193.254 23.3297 193.689 23.2686C193.689 23.2686 196.356 23.7842 199.429 20.8857C199.429 20.8857 200.523 20.5325 200.626 20.3253L199.013 20.0333C199.013 20.0333 198.844 21.2271 198.011 21.7616C198.011 21.7616 199.041 20.0992 198.774 19.9791C198.72 19.9532 197.915 19.8614 197.915 19.8614C197.915 19.8614 197.612 21.9382 196.297 22.7223C196.297 22.7223 197.793 20.9068 197.607 19.8237L196.379 19.7578C196.379 19.7578 196.17 21.9688 194.705 22.9201C194.705 22.9201 196.203 20.9681 196.114 19.7625L194.898 19.8614C194.898 19.8614 194.663 22.0112 193.428 22.7929C193.428 22.7929 194.931 20.3629 194.621 19.9014C194.621 19.9014 193.511 20.0592 193.236 20.2428C193.236 20.2428 193.025 21.7828 192.273 22.1736C192.273 22.1736 193.104 20.443 192.935 20.3229C192.935 20.3229 191.543 20.9139 190.996 21.5873C191.469 20.9426 192.102 20.4328 192.832 20.1086C192.378 19.9193 191.879 19.8669 191.395 19.9579C191.395 19.9579 191.994 19.2845 193.172 19.9697C193.172 19.9697 194.273 19.5529 194.461 19.6047C194.461 19.6047 193.393 18.7641 192.508 18.6181C192.508 18.6181 193.574 18.312 194.783 19.56L196.001 19.4352C196.001 19.4352 194.649 18.2579 193.87 18.0601C193.87 18.0601 195.004 17.9165 196.311 19.4281L197.516 19.4823C197.516 19.4823 196.426 18.3709 195.607 17.9706C195.607 17.9706 196.687 18.0648 197.858 19.5082L198.659 19.6377C198.659 19.6377 197.849 18.8418 197.595 18.6346C197.342 18.4274 197.379 18.3591 197.379 18.3591C198.032 18.6497 198.591 19.1159 198.995 19.706C198.995 19.706 200.621 20.0733 200.652 19.9768Z" fill="#0161A4"/>
<path opacity="0.1" d="M206.188 58.7859C206.188 58.7859 203.718 50.1609 198.163 53.2572C198.163 53.2572 197.051 53.4291 196.912 54.5452C196.912 54.5452 197.353 54.4063 197.506 55.3081C197.563 55.6321 197.657 55.9483 197.788 56.25C197.962 56.6557 198.264 56.9931 198.647 57.2107C198.647 57.2107 200.464 59.2357 204.657 58.7836C204.657 58.7836 205.741 59.165 205.948 59.0614L204.838 57.8511C204.838 57.8511 203.985 58.7035 202.999 58.6234C202.999 58.6234 204.821 57.9171 204.68 57.6651C204.652 57.6133 204.065 57.0506 204.065 57.0506C204.065 57.0506 202.577 58.5246 201.056 58.3527C201.056 58.3527 203.34 57.8111 203.842 56.8363L202.903 56.0404C202.903 56.0404 201.405 57.6745 199.666 57.5474C199.666 57.5474 202.032 56.8951 202.685 55.8803L201.657 55.2234C201.657 55.2234 200.166 56.7892 198.72 56.6715C198.72 56.6715 201.38 55.6425 201.412 55.0891C201.412 55.0891 200.431 54.5429 200.1 54.524C200.1 54.524 199.004 55.6213 198.17 55.48C198.17 55.48 199.875 54.6017 199.814 54.4039C199.814 54.4039 198.349 54.0343 197.506 54.2391C198.269 54.0121 199.079 53.9886 199.854 54.1708C199.605 53.7448 199.238 53.401 198.797 53.1819C198.797 53.1819 199.68 53.0053 200.206 54.265C200.206 54.265 201.335 54.5994 201.452 54.7548C201.452 54.7548 201.107 53.4385 200.49 52.7863C200.49 52.7863 201.523 53.1866 201.732 54.9196L202.779 55.5577C202.779 55.5577 202.413 53.7917 201.905 53.1701C201.905 53.1701 202.896 53.7423 203.03 55.739L203.969 56.509C203.969 56.509 203.769 54.9643 203.356 54.1543C203.356 54.1543 204.162 54.8843 204.227 56.7444L204.786 57.3331C204.786 57.3331 204.622 56.2076 204.551 55.8874C204.481 55.5671 204.551 55.5224 204.551 55.5224C204.899 56.1487 205.065 56.8597 205.032 57.5756C205.032 57.5756 206.103 58.8424 206.188 58.7859Z" fill="#0161A4"/>
<path opacity="0.1" d="M151.155 78.2211C151.155 78.2211 146.359 70.6439 141.906 75.1789C141.906 75.1789 140.887 75.6498 141.065 76.7683C141.065 76.7683 141.453 76.5093 141.852 77.3334C141.995 77.6255 142.173 77.899 142.382 78.1481C142.662 78.4881 143.046 78.7263 143.474 78.8262C143.474 78.8262 145.786 80.2579 149.683 78.6379C149.683 78.6379 150.831 78.6991 151 78.5413L149.592 77.6937C149.592 77.6937 149.012 78.7532 148.042 78.9534C148.042 78.9534 149.596 77.7761 149.387 77.5595C149.348 77.5171 148.624 77.145 148.624 77.145C148.624 77.145 147.608 78.9769 146.101 79.243C146.101 79.243 148.141 78.0775 148.352 76.999L147.228 76.5022C147.228 76.5022 146.249 78.4919 144.544 78.8569C144.544 78.8569 146.634 77.5642 146.974 76.4057L145.8 76.0666C145.8 76.0666 144.81 77.9903 143.389 78.2847C143.389 78.2847 145.652 76.547 145.528 76.0054C145.528 76.0054 144.434 75.7582 144.119 75.8335C144.119 75.8335 143.375 77.1968 142.535 77.2957C142.535 77.2957 143.925 75.9724 143.81 75.7982C143.81 75.7982 142.3 75.857 141.549 76.2927C142.219 75.8572 142.991 75.6055 143.788 75.5627C143.431 75.2238 142.983 74.9971 142.5 74.9105C142.5 74.9105 143.295 74.4937 144.143 75.5533C144.143 75.5533 145.317 75.5533 145.479 75.671C145.479 75.671 144.774 74.4937 144.002 74.0534C144.002 74.0534 145.105 74.1476 145.791 75.7511L146.976 76.0666C146.976 76.0666 146.129 74.4772 145.469 74.0228C145.469 74.0228 146.58 74.2912 147.268 76.1726L148.376 76.6435C148.376 76.6435 147.751 75.2189 147.124 74.5526C147.124 74.5526 148.101 75.0235 148.686 76.7918L149.39 77.1992C149.39 77.1992 148.92 76.1655 148.754 75.8806C148.587 75.5957 148.653 75.5297 148.653 75.5297C149.161 76.033 149.519 76.6681 149.688 77.364C149.688 77.364 151.092 78.3012 151.155 78.2211Z" fill="#0161A4"/>
<path d="M182.676 39.5062C182.676 39.5062 178.115 31.7853 173.521 36.179C173.521 36.179 172.488 36.6264 172.633 37.7425C172.633 37.7425 173.025 37.4929 173.401 38.3288C173.535 38.626 173.705 38.9058 173.906 39.1624C174.175 39.5096 174.551 39.7579 174.976 39.8688C174.976 39.8688 177.242 41.371 181.188 39.8688C181.188 39.8688 182.333 39.9653 182.507 39.8123L181.129 38.9222C181.129 38.9222 180.519 39.9606 179.542 40.1325C179.542 40.1325 181.132 38.9952 180.932 38.7809C180.89 38.7362 180.181 38.3406 180.181 38.3406C180.181 38.3406 179.108 40.1419 177.598 40.3609C177.598 40.3609 179.674 39.2589 179.915 38.1899L178.807 37.6672C178.807 37.6672 177.767 39.6286 176.051 39.9418C176.051 39.9418 178.181 38.715 178.556 37.5683L177.396 37.1915C177.396 37.1915 176.345 39.0753 174.917 39.3343C174.917 39.3343 177.232 37.6672 177.124 37.1233C177.124 37.1233 176.04 36.8407 175.716 36.9066C175.716 36.9066 174.929 38.2464 174.086 38.3194C174.086 38.3194 175.516 37.0432 175.408 36.8642C175.408 36.8642 173.896 36.876 173.133 37.2881C173.817 36.8746 174.596 36.6473 175.394 36.6288C175.047 36.2788 174.606 36.0381 174.124 35.9365C174.124 35.9365 174.934 35.5433 175.767 36.6288C175.767 36.6288 176.941 36.6688 177.098 36.7889C177.098 36.7889 176.434 35.6116 175.673 35.1265C175.673 35.1265 176.772 35.2537 177.408 36.8784L178.582 37.2316C178.582 37.2316 177.786 35.6163 177.138 35.1406C177.138 35.1406 178.242 35.4444 178.871 37.3446L179.962 37.8555C179.962 37.8555 179.383 36.4122 178.789 35.7364C178.789 35.7364 179.749 36.2379 180.282 38.0227L180.97 38.4513C180.97 38.4513 180.528 37.4035 180.373 37.1138C180.218 36.8242 180.284 36.7606 180.284 36.7606C180.776 37.2794 181.115 37.925 181.263 38.6255C181.263 38.6255 182.608 39.5839 182.676 39.5062Z" fill="#0161A4"/>
<path d="M153.818 55.7414C153.818 55.7414 154.052 46.7702 147.838 48.0346C147.838 48.0346 146.725 47.8628 146.256 48.8847C146.256 48.8847 146.725 48.8847 146.594 49.7912C146.551 50.1144 146.546 50.4417 146.58 50.766C146.622 51.206 146.808 51.6197 147.108 51.9433C147.108 51.9433 148.228 54.4251 152.362 55.2681C152.362 55.2681 153.28 55.9627 153.51 55.925L152.806 54.4369C152.806 54.4369 151.738 54.9879 150.82 54.6135C150.82 54.6135 152.768 54.4981 152.714 54.2109C152.714 54.152 152.31 53.4362 152.31 53.4362C152.31 53.4362 150.446 54.3898 149.05 53.7635C149.05 53.7635 151.397 53.9401 152.165 53.1654L151.51 52.1223C151.51 52.1223 149.589 53.2243 147.97 52.5744C147.97 52.5744 150.423 52.6733 151.353 51.9033L150.571 50.9615C150.571 50.9615 148.676 52.0022 147.333 51.4512C147.333 51.4512 150.179 51.2793 150.385 50.759C150.385 50.759 149.615 49.9419 149.305 49.8171C149.305 49.8171 147.93 50.5235 147.178 50.142C147.178 50.142 149.057 49.8265 149.068 49.617C149.068 49.617 147.784 48.8187 146.918 48.7599C147.717 48.7742 148.498 48.9983 149.183 49.4097C149.076 48.9285 148.832 48.489 148.479 48.1453C148.479 48.1453 149.373 48.2466 149.496 49.6052C149.496 49.6052 150.475 50.2692 150.538 50.4528C150.538 50.4528 150.606 49.0942 150.214 48.2842C150.214 48.2842 151.078 48.9788 150.754 50.693L151.559 51.6208C151.559 51.6208 151.742 49.8265 151.449 49.0801C151.449 49.0801 152.219 49.9254 151.745 51.8703L152.395 52.8852C152.395 52.8852 152.672 51.3523 152.524 50.4505C152.524 50.4505 153.069 51.3924 152.571 53.1842L152.928 53.9142C152.928 53.9142 153.109 52.791 153.132 52.4637C153.155 52.1364 153.245 52.1152 153.245 52.1152C153.386 52.8176 153.33 53.5456 153.083 54.2179C153.083 54.2179 153.714 55.772 153.818 55.7414Z" fill="#0161A4"/>
<path opacity="0.1" d="M164.091 169.734C167.582 169.734 170.413 169.254 170.413 168.663C170.413 168.071 167.582 167.591 164.091 167.591C160.599 167.591 157.769 168.071 157.769 168.663C157.769 169.254 160.599 169.734 164.091 169.734Z" fill="#0161A4"/>
<path opacity="0.1" d="M141.044 186C144.536 186 147.366 185.52 147.366 184.929C147.366 184.337 144.536 183.857 141.044 183.857C137.552 183.857 134.722 184.337 134.722 184.929C134.722 185.52 137.552 186 141.044 186Z" fill="#0161A4"/>
<path opacity="0.1" d="M21.8656 177.667C25.3572 177.667 28.1877 177.187 28.1877 176.596C28.1877 176.004 25.3572 175.524 21.8656 175.524C18.374 175.524 15.5435 176.004 15.5435 176.596C15.5435 177.187 18.374 177.667 21.8656 177.667Z" fill="#0161A4"/>
<path opacity="0.1" d="M188.996 184.929C192.488 184.929 195.319 184.449 195.319 183.857C195.319 183.266 192.488 182.786 188.996 182.786C185.505 182.786 182.674 183.266 182.674 183.857C182.674 184.449 185.505 184.929 188.996 184.929Z" fill="#0161A4"/>
<path d="M195.579 171.865C200.792 171.865 205.019 171.148 205.019 170.264C205.019 169.38 200.792 168.663 195.579 168.663C190.365 168.663 186.139 169.38 186.139 170.264C186.139 171.148 190.365 171.865 195.579 171.865Z" fill="#0161A4"/>
<path d="M199.492 167.643C199.923 167.292 200.237 166.817 200.391 166.282C200.509 165.741 200.279 165.093 199.765 164.895C199.187 164.674 198.57 165.074 198.1 165.479C197.631 165.884 197.098 166.348 196.485 166.263C196.799 165.977 197.035 165.614 197.168 165.209C197.301 164.804 197.328 164.372 197.246 163.954C197.219 163.78 197.146 163.617 197.034 163.483C196.713 163.139 196.133 163.287 195.748 163.558C194.527 164.42 194.187 166.082 194.18 167.58C194.057 167.04 194.161 166.478 194.158 165.931C194.156 165.385 194.003 164.754 193.536 164.467C193.25 164.306 192.926 164.225 192.597 164.231C192.048 164.213 191.435 164.267 191.062 164.669C190.592 165.168 190.717 166.009 191.121 166.553C191.524 167.097 192.142 167.448 192.71 167.829C193.165 168.102 193.553 168.472 193.846 168.915C193.88 168.976 193.907 169.041 193.928 169.108H197.37C198.14 168.719 198.854 168.226 199.492 167.643Z" fill="#0161A4"/>
<path d="M17.6211 171.616C17.6211 171.616 21.2247 171.505 22.3163 170.728C23.4079 169.951 27.8637 169.025 28.1337 170.271C28.4036 171.517 33.5519 176.461 29.4812 176.494C25.4104 176.527 20.0227 175.859 18.9381 175.195C17.8535 174.531 17.6211 171.616 17.6211 171.616Z" fill="#A8A8A8"/>
<path opacity="0.2" d="M29.5493 176.061C25.4785 176.094 20.0908 175.425 19.0062 174.761C18.1798 174.257 17.8512 172.447 17.7408 171.611H17.6211C17.6211 171.611 17.8559 174.528 18.9334 175.19C20.011 175.851 25.4058 176.523 29.4765 176.49C30.6503 176.49 31.0564 176.061 31.0353 175.439C30.871 175.819 30.4226 176.054 29.5493 176.061Z" fill="black"/>
</g>
<defs>
<linearGradient id="paint0_linear_14_573" x1="52.3493" y1="102.055" x2="125.625" y2="102.055" gradientUnits="userSpaceOnUse">
<stop stop-color="#808080" stop-opacity="0.25"/>
<stop offset="0.54" stop-color="#808080" stop-opacity="0.12"/>
<stop offset="1" stop-color="#808080" stop-opacity="0.1"/>
</linearGradient>
<clipPath id="clip0_14_573">
<rect width="237" height="186" fill="white"/>
</clipPath>
</defs>
</svg>
