<svg width="30" height="30" viewBox="0 0 30 30" fill="none" xmlns="http://www.w3.org/2000/svg">
<path d="M24.1393 13.0526C24.3799 12.33 24.4634 11.5645 24.3841 10.8071C24.3049 10.0497 24.0647 9.31799 23.6798 8.66092C23.1092 7.66706 22.2376 6.88019 21.1907 6.41385C20.1439 5.94751 18.976 5.8258 17.8554 6.06629C17.35 5.49672 16.7288 5.04166 16.0333 4.7316C15.3378 4.42155 14.5841 4.26363 13.8226 4.26842C12.677 4.26565 11.5601 4.62677 10.6329 5.2997C9.70577 5.97263 9.01628 6.92262 8.66383 8.01268C7.91752 8.16546 7.21245 8.47589 6.59583 8.92322C5.97921 9.37054 5.46526 9.94442 5.0884 10.6065C4.51322 11.5976 4.2677 12.7457 4.38725 13.8854C4.50679 15.0251 4.98523 16.0973 5.75355 16.9474C5.51298 17.67 5.42953 18.4356 5.50877 19.193C5.58802 19.9503 5.82814 20.682 6.21307 21.3391C6.78375 22.3329 7.65537 23.1197 8.7022 23.5861C9.74902 24.0524 10.917 24.1742 12.0375 23.9337C12.5429 24.5033 13.1641 24.9583 13.8596 25.2684C14.5551 25.5785 15.3088 25.7364 16.0703 25.7316C17.2165 25.7346 18.334 25.3733 19.2614 24.7C20.189 24.0266 20.8786 23.076 21.2308 21.9852C21.9771 21.8325 22.6821 21.5221 23.2988 21.0747C23.9154 20.6274 24.4293 20.0535 24.8062 19.3914C25.3807 18.4004 25.6256 17.2526 25.5057 16.1133C25.3859 14.9741 24.9075 13.9024 24.1393 13.0526ZM16.072 24.3285C15.1311 24.3298 14.2197 24.0003 13.4972 23.3976C13.5298 23.3799 13.5869 23.3485 13.6242 23.3257L17.8978 20.8572C18.005 20.7962 18.0941 20.7077 18.1558 20.6008C18.2176 20.4939 18.2497 20.3725 18.249 20.2492V14.2242L20.0553 15.2672C20.0648 15.272 20.0729 15.2789 20.0791 15.2876C20.0852 15.2962 20.0891 15.3062 20.0904 15.3167V20.3063C20.0891 21.372 19.6654 22.3937 18.9122 23.1476C18.159 23.9015 17.1376 24.3262 16.072 24.3285ZM7.42999 20.6376C6.95871 19.8233 6.78885 18.8692 6.95016 17.9422C6.98189 17.9613 7.03732 17.9951 7.0771 18.018L11.3507 20.4865C11.4572 20.5487 11.5783 20.5816 11.7017 20.5816C11.825 20.5816 11.9462 20.5487 12.0527 20.4865L17.2703 17.4738V19.5599C17.2709 19.5705 17.2688 19.5812 17.2643 19.5908C17.2598 19.6005 17.253 19.6089 17.2445 19.6153L12.9243 22.1096C12.0003 22.6419 10.9028 22.7857 9.87276 22.5097C8.84271 22.2338 7.96421 21.5605 7.42999 20.6376ZM6.30574 11.308C6.77498 10.4926 7.51612 9.86833 8.39938 9.54439C8.39938 9.5812 8.39726 9.6464 8.39726 9.69163V14.6287C8.39651 14.752 8.42861 14.8733 8.49026 14.9801C8.55191 15.0869 8.64088 15.1753 8.74804 15.2363L13.9656 18.2486L12.1593 19.2916C12.1504 19.2975 12.1402 19.301 12.1295 19.302C12.1189 19.3029 12.1082 19.3013 12.0984 19.2971L7.7778 16.8006C6.85535 16.2664 6.18237 15.3882 5.90642 14.3586C5.63047 13.329 5.77407 12.2319 6.30574 11.308ZM21.1466 14.7616L15.9289 11.7489L17.7353 10.7063C17.7442 10.7005 17.7544 10.6969 17.7651 10.6959C17.7757 10.6949 17.7864 10.6967 17.7962 10.7008L22.1168 13.1952C22.7787 13.5775 23.318 14.1405 23.6715 14.8183C24.025 15.496 24.1781 16.2605 24.1129 17.0221C24.0477 17.7837 23.7668 18.511 23.3033 19.1188C22.8397 19.7266 22.2125 20.1897 21.4952 20.4539C21.4952 20.4167 21.4952 20.3515 21.4952 20.3063V15.3692C21.4962 15.2461 21.4645 15.1249 21.4032 15.0182C21.3419 14.9114 21.2534 14.8228 21.1466 14.7616ZM22.9444 12.0557C22.9127 12.0362 22.8573 12.0028 22.8175 11.98L18.5439 9.51139C18.4374 9.44926 18.3163 9.41647 18.1929 9.41647C18.0696 9.41647 17.9484 9.44926 17.8419 9.51139L12.6243 12.5241V10.4381C12.6237 10.4274 12.6258 10.4168 12.6303 10.4071C12.6348 10.3975 12.6416 10.389 12.6501 10.3826L16.9703 7.8904C17.6321 7.50877 18.389 7.3235 19.1523 7.35626C19.9155 7.38903 20.6537 7.63848 21.2804 8.07543C21.9071 8.51237 22.3964 9.11875 22.6911 9.82363C22.9858 10.5285 23.0737 11.3027 22.9444 12.0557ZM11.6423 15.7737L9.83547 14.7307C9.82602 14.726 9.81781 14.719 9.8117 14.7104C9.80558 14.7017 9.80166 14.6917 9.80037 14.6812V9.69163C9.80086 8.92745 10.019 8.1792 10.4293 7.53448C10.8396 6.88977 11.4251 6.37526 12.1172 6.05119C12.8093 5.72712 13.5793 5.6069 14.3373 5.70459C15.0952 5.80228 15.8096 6.11385 16.3969 6.60282C16.3644 6.62059 16.3077 6.6519 16.27 6.67475L11.9964 9.14328C11.8891 9.20424 11.8001 9.29266 11.7384 9.39946C11.6767 9.50624 11.6445 9.62756 11.6452 9.75087L11.6423 15.7737ZM12.6235 13.6581L14.9473 12.3159L17.2711 13.6572V16.3407L14.9473 17.682L12.6235 16.3407V13.6581Z" fill="#0161A4"/>
</svg>